<svg xmlns="http://www.w3.org/2000/svg" version="1.1" xmlns:xlink="http://www.w3.org/1999/xlink" xmlns:svgjs="http://svgjs.dev/svgjs" width="300" height="300" preserveAspectRatio="none" viewBox="0 0 300 300">
    <g mask="url(&quot;#SvgjsMask1966&quot;)" fill="none">
        <rect width="300" height="300" x="0" y="0" fill="url(&quot;#SvgjsLinearGradient1967&quot;)"></rect>
        <path d="M-69.93 29.94 a99.87 99.87 0 1 0 199.74 0 a99.87 99.87 0 1 0 -199.74 0z" fill="rgba(28, 83, 142, 0.4)" class="triangle-float1"></path>
        <path d="M38.61746391405318-40.183611446619025L-32.303503910551804 15.22592133269022 94.02699669336243 30.73735637798596z" fill="rgba(28, 83, 142, 0.4)" class="triangle-float3"></path>
        <path d="M-67.49 27.48 a94.97 94.97 0 1 0 189.94 0 a94.97 94.97 0 1 0 -189.94 0z" fill="rgba(28, 83, 142, 0.4)" class="triangle-float2"></path>
        <path d="M180.98 19.03 a78.05 78.05 0 1 0 156.1 0 a78.05 78.05 0 1 0 -156.1 0z" fill="rgba(28, 83, 142, 0.4)" class="triangle-float2"></path>
        <path d="M226.69872981077805 4.999999999999993L279.6410161513775 93.30127018922194 324.6410161513775 15.358983848622458z" fill="rgba(28, 83, 142, 0.4)" class="triangle-float1"></path>
        <path d="M251.40636619160497-20.539853401046873L206.81767666296133 19.60798298048462 289.3337759995804 66.41709908268436z" fill="rgba(28, 83, 142, 0.4)" class="triangle-float1"></path>
        <path d="M-15.315389351832497 248.86908691296503L45.12139839443101 332.22011982146046 83.15704195109397 250.652418988162z" fill="rgba(28, 83, 142, 0.4)" class="triangle-float2"></path>
        <path d="M47.70875984506995 320.8566595909487L92.99133465843624 281.49311785151826 11.304734642607407 233.25102650118404z" fill="rgba(28, 83, 142, 0.4)" class="triangle-float2"></path>
        <path d="M-42.8 242.8 a45.6 45.6 0 1 0 91.2 0 a45.6 45.6 0 1 0 -91.2 0z" fill="rgba(28, 83, 142, 0.4)" class="triangle-float3"></path>
        <path d="M213.09 226.91 a13.82 13.82 0 1 0 27.64 0 a13.82 13.82 0 1 0 -27.64 0z" fill="rgba(28, 83, 142, 0.4)" class="triangle-float2"></path>
        <path d="M290.33683215379006 315.67727288213L299.407807159098 213.12134954050595 217.18871597126395 249.72764741732797z" fill="rgba(28, 83, 142, 0.4)" class="triangle-float3"></path>
        <path d="M172.27 267.74 a95.47 95.47 0 1 0 190.94 0 a95.47 95.47 0 1 0 -190.94 0z" fill="rgba(28, 83, 142, 0.4)" class="triangle-float3"></path>
    </g>
    <defs>
        <mask id="SvgjsMask1966">
            <rect width="300" height="300" fill="#ffffff"></rect>
        </mask>
        <linearGradient x1="50%" y1="100%" x2="50%" y2="0%" gradientUnits="userSpaceOnUse" id="SvgjsLinearGradient1967">
            <stop stop-color="rgba(43, 50, 58, 0.61)" offset="1"></stop>
            <stop stop-color="rgba(0, 125, 255, 0.81)" offset="1"></stop>
        </linearGradient>
        <style>
            @keyframes float1 {
                    0%{transform: translate(0, 0)}
                    50%{transform: translate(-10px, 0)}
                    100%{transform: translate(0, 0)}
                }

                .triangle-float1 {
                    animation: float1 5s infinite;
                }

                @keyframes float2 {
                    0%{transform: translate(0, 0)}
                    50%{transform: translate(-5px, -5px)}
                    100%{transform: translate(0, 0)}
                }

                .triangle-float2 {
                    animation: float2 4s infinite;
                }

                @keyframes float3 {
                    0%{transform: translate(0, 0)}
                    50%{transform: translate(0, -10px)}
                    100%{transform: translate(0, 0)}
                }

                .triangle-float3 {
                    animation: float3 6s infinite;
                }
        </style>
    </defs>
</svg>